<svg width="15" height="15" viewBox="0 0 15 15" fill="none" xmlns="http://www.w3.org/2000/svg">
<path d="M14.1112 7.30493C14.1112 11.051 11.0487 14.0862 7.32996 14.0862C3.58386 14.0862 0.548706 11.051 0.548706 7.30493C0.548706 3.58618 3.58386 0.523682 7.32996 0.523682C11.0487 0.523682 14.1112 3.58618 14.1112 7.30493ZM6.53699 10.9143L11.5682 5.88306C11.7323 5.71899 11.7323 5.41821 11.5682 5.25415L10.9393 4.65259C10.7753 4.46118 10.5018 4.46118 10.3378 4.65259L6.23621 8.75415L4.2948 6.84009C4.13074 6.64868 3.8573 6.64868 3.69324 6.84009L3.06433 7.44165C2.90027 7.60571 2.90027 7.90649 3.06433 8.07056L5.90808 10.9143C6.07214 11.0784 6.37292 11.0784 6.53699 10.9143Z" fill="#FFA113"/>
</svg>
